<svg width="896" height="896" viewBox="0 0 896 896" fill="none" xmlns="http://www.w3.org/2000/svg">
<rect width="896" height="896" fill="black"/>
<path d="M517.635 253.454C523.733 253.251 531.58 252.268 537.4 254.045C542.055 255.465 544.061 260.763 545.045 265.085C547.677 276.628 546.208 290.375 546.086 302.204C545.87 323.025 542.291 408.199 549.742 422.125C553.885 429.866 561.741 434.503 569.971 436.811C587.903 441.837 641.572 438.563 663.027 438.298C670.13 438.209 678.852 436.959 685.649 439.107C689.174 440.22 691.957 442.599 693.612 445.926C697.036 452.809 696.024 604.448 695.158 622.817C694.921 627.855 694.37 632.847 692.788 637.657C684.45 645.762 636.086 642.087 622.961 642.245C604.678 640.703 580.967 645.417 563.437 641.19C489.193 623.285 500.64 558.627 499.772 499.54C499.577 486.308 488.225 470.917 474.906 474.032C456.559 478.323 438.12 508.099 426.241 523.376L372.691 590.143C359.464 606.729 344.865 625.919 330.959 641.715C317.18 642.755 299.578 642.257 285.464 642.262L208.197 642.238C205.366 639.899 202.433 635.973 200.072 633.04L200 523.156C204.603 515.046 220.056 496.616 226.517 488.581L281.368 420.819L367.992 312.784C382.443 294.867 396.621 276.585 411.992 259.464C418.919 251.746 427.409 253.373 437.108 253.424C463.952 253.563 490.791 253.492 517.635 253.454Z" fill="#ECECE6"/>
</svg>
