<svg width="1152" height="896" viewBox="0 0 1152 896" fill="none" xmlns="http://www.w3.org/2000/svg">
<rect width="1152" height="896" fill="black"/>
<g clip-path="url(#clip0_1_33)">
<path d="M329.576 375.568C331.603 375.5 334.211 375.173 336.145 375.764C337.692 376.236 338.359 377.998 338.686 379.434C339.561 383.272 339.073 387.843 339.032 391.775C338.96 398.698 337.771 427.016 340.247 431.646C341.624 434.219 344.235 435.761 346.971 436.528C352.931 438.199 370.769 437.111 377.9 437.023C380.261 436.993 383.16 436.577 385.419 437.292C386.591 437.662 387.516 438.452 388.066 439.558C389.204 441.847 388.868 492.262 388.58 498.369C388.501 500.045 388.318 501.704 387.792 503.303C385.021 505.998 368.946 504.776 364.583 504.829C358.507 504.316 350.626 505.883 344.799 504.478C320.122 498.525 323.927 477.028 323.638 457.384C323.574 452.985 319.801 447.867 315.374 448.903C309.276 450.33 303.147 460.229 299.199 465.308L281.4 487.507C277.004 493.021 272.152 499.401 267.529 504.653C262.95 504.998 257.099 504.833 252.408 504.834L226.727 504.827C225.786 504.049 224.811 502.744 224.026 501.769L224.002 465.235C225.532 462.539 230.668 456.412 232.816 453.74L251.047 431.211L279.838 395.293C284.641 389.336 289.354 383.258 294.463 377.566C296.765 375 299.587 375.541 302.811 375.557C311.733 375.604 320.654 375.58 329.576 375.568Z" fill="#ECECE6"/>
<path d="M468.971 401.34L487.913 401.363L521.934 478.038L502.444 478.076C500.922 474.251 497.411 464.974 495.386 462.005L488.608 462.049L460.813 462.071C458.987 465.678 455.911 474.119 454.241 478.193C447.894 478.058 441.545 478.069 435.199 478.228C436.402 474.839 438.327 470.461 439.877 467.206C450.074 445.801 458.537 422.505 468.971 401.34ZM466.602 448.492L478.104 448.341C481.879 448.343 486.148 448.253 489.882 448.394C488.492 444.909 479.335 421.502 478.1 419.758C474.338 429.23 470.65 439.204 466.602 448.492Z" fill="#ECECE6"/>
<path d="M645.956 397.373L663.795 397.379C663.511 399.707 663.806 404.09 663.85 406.558C663.948 412.619 664.2 418.686 663.606 424.737C668.882 420.918 673.048 418.481 679.542 418.242C701.924 417.422 706.917 432.167 705.862 451.53C705.484 458.518 705.649 471.017 706.153 478.058L688.268 478.056L688.288 456.286L688.327 448.295C688.335 443.981 687.992 439.378 684.854 436.306C679.841 431.094 668.807 433.491 665.527 439.61C662.889 444.542 663.523 453.783 663.543 459.501C663.566 465.645 663.921 471.834 663.952 478.004C658.168 478.145 651.93 478.057 646.11 478.073C645.567 451.74 645.98 423.825 645.956 397.373Z" fill="#ECECE6"/>
<path d="M744.921 418.392C768.386 416.9 779.825 431.218 779.16 453.655C764.322 453.892 749.012 453.724 734.139 453.728C740.191 467.632 754.147 467.882 765.224 459.474L768.654 462.855C770.941 465.185 772.572 466.29 775.048 469.084C763.184 481.544 742.987 482.107 729.051 472.717C715.643 463.684 713.245 443.278 722.653 430.577C728.476 422.716 735.596 419.886 744.921 418.392ZM751.528 443.49L762.79 443.506C759.908 434.353 755.809 431.719 746.279 432.178C738.982 433.657 736.643 436.752 734.336 443.614C740.065 443.502 745.795 443.46 751.528 443.49Z" fill="#ECECE6"/>
<path d="M551.509 418.367C574.714 417.384 587.429 430.441 585.811 453.68C571.481 453.775 555.455 453.949 541.215 453.489C545.735 467.177 562.285 468.206 571.958 459.055L574.84 462.095C577.246 463.938 579.688 466.526 581.854 468.698C565.187 487.324 528.504 480.107 524.455 454.258C521.331 434.308 532.543 421.745 551.509 418.367ZM541.346 443.709C546.957 443.566 552.57 443.495 558.184 443.496C560.104 443.527 567.709 443.869 569.016 443.202C569.19 441.467 568.591 440.441 567.863 438.974C564.682 432.58 558.911 431.741 552.489 432.185C545.795 433.818 543.126 437.108 541.346 443.709Z" fill="#ECECE6"/>
<path d="M865.802 419.231C872.154 419.091 878.702 419.184 885.07 419.198C888.653 424.006 893.528 430.722 896.568 435.753C899.998 430.86 905.318 423.711 909.098 419.166C915.265 419.125 921.427 419.162 927.59 419.276C923.369 426.382 911.941 441.191 906.779 448.221C909.082 451.813 927.995 475.967 927.846 477.875L927.054 478.091C922.01 478.061 913.725 477.841 908.996 478.451C905.117 472.927 900.935 466.54 896.706 461.415C892.745 465.879 888.003 473.238 884.196 478.352C877.746 478.397 871.295 478.366 864.845 478.259C872.205 468.653 878.907 458.572 886.688 449.075C882.361 441.156 869.271 427.161 865.802 419.231Z" fill="#ECECE6"/>
<path d="M600.42 404.882L618.416 404.871C618.384 409.929 618.408 414.987 618.479 420.044C622.771 419.687 628.886 419.845 633.316 419.838C633.391 424.276 633.32 428.868 633.308 433.318C628.378 433.278 623.369 433.347 618.431 433.368C618.431 434.384 618.313 436.114 618.42 437.049C619.577 447.048 612.698 472.276 632.438 463.214C633.619 465.949 634.793 469.611 635.801 472.477C636.069 473.304 636.163 474.159 636.289 475.02C634.45 482.182 604.767 480.027 602.105 467.679C599.585 455.961 601.038 445.222 600.479 433.407C597.786 433.238 593.777 433.322 590.985 433.305L590.946 419.808L600.463 419.911C600.601 415.224 600.436 409.642 600.42 404.882Z" fill="#ECECE6"/>
<path d="M793.111 404.901L810.992 404.872C810.953 409.982 811 415.091 811.134 420.199C815.505 420.162 822.227 420.429 826.247 419.846C826.369 424.182 826.275 428.935 826.275 433.303L811.126 433.32C810.945 439.093 810.721 457.361 811.788 461.973C813.221 463.301 814.115 463.844 815.749 464.886C820.293 465.165 821.057 465.076 825.176 463.174C826.598 466.011 827.299 468.537 828.224 471.545L829.539 476.151C817.88 482.043 796.671 479.454 794.119 464.375C792.56 455.183 793.576 442.958 793.237 433.35L783.566 433.305V419.865L793.076 419.889C792.981 414.893 792.993 409.896 793.111 404.901Z" fill="#ECECE6"/>
<path d="M839.061 419.202L856.667 419.237C856.958 438.539 856.777 458.734 856.698 478.063L839.092 478.065L839.061 419.202Z" fill="#ECECE6"/>
<path d="M846.066 391.556C849.22 391.407 851.756 391.467 854.552 393.211C856.844 394.608 858.466 396.874 859.049 399.49C860.498 406.021 856.218 410.262 850.268 411.529C847.208 411.689 844.952 411.705 842.152 410.286C836.108 407.224 834.985 398.971 840.116 394.496C842.01 392.843 843.668 392.233 846.066 391.556Z" fill="#ECECE6"/>
</g>
<defs>
<clipPath id="clip0_1_33">
<rect width="710" height="131" fill="white" transform="translate(221 375)"/>
</clipPath>
</defs>
</svg>
